<svg version="1.1" xmlns="http://www.w3.org/2000/svg" xmlns:xlink="http://www.w3.org/1999/xlink" width="500px" height="500px" viewBox="0,0,256,209.16406"><g fill="#ff7315" fill-rule="nonzero" stroke="none" stroke-width="1" stroke-linecap="butt" stroke-linejoin="miter" stroke-miterlimit="10" stroke-dasharray="" stroke-dashoffset="0" font-family="none" font-weight="none" font-size="none" text-anchor="none" style="mix-blend-mode: normal"><g transform="translate(1.51982,6.54986) scale(1.56098,1.56098)"><g transform="translate(0,134) scale(0.1,-0.1)"><path d="M758,1131c-77,-25 -134,-60 -187,-115c-37,-38 -47,-43 -63,-35c-11,6 -21,9 -23,7c-1,-2 -5,-29 -7,-60l-5,-57l29,15c15,8 40,19 54,24c26,10 26,11 8,31c-17,19 -17,21 30,68c30,30 76,62 120,83c66,31 78,33 176,33c98,0 110,-2 175,-33c166,-78 254,-227 242,-409c-15,-242 -227,-414 -473,-383c-91,12 -100,12 -88,0c5,-5 41,-14 80,-19c216,-31 418,94 483,297c42,130 17,291 -62,394c-47,61 -127,123 -194,148c-81,32 -217,37 -295,11z"></path><path d="M898,1049c-25,-14 -24,-65 1,-79c11,-5 24,-10 30,-10c16,0 41,30 41,50c0,21 -25,50 -43,50c-7,0 -20,-5 -29,-11zM948,1028c16,-16 -3,-48 -29,-48c-22,0 -34,22 -25,45c6,18 37,20 54,3z"></path><path d="M699,958c-38,-74 -72,-119 -101,-134c-16,-8 -28,-23 -28,-34c0,-24 57,-81 112,-113c24,-14 107,-61 185,-106c159,-90 235,-117 294,-101c85,23 79,66 -19,140c-86,65 -145,146 -161,220c-21,96 -44,111 -99,65c-17,-14 -40,-25 -51,-25c-34,0 -71,44 -71,83c0,23 -6,37 -16,41c-23,9 -22,10 -45,-36zM776,872c24,-21 34,-23 80,-17c57,7 75,-4 52,-32c-11,-14 -10,-16 9,-11c31,8 61,-25 43,-47c-10,-13 -9,-15 8,-15c24,0 45,-31 36,-53c-4,-11 2,-16 18,-19c18,-2 22,-9 20,-27c-1,-16 2,-22 12,-18c22,9 146,-82 146,-106c0,-18 -84,3 -157,38c-43,21 -100,62 -145,103c-40,37 -82,73 -93,79c-11,7 -50,31 -87,54l-68,41l19,27c10,14 29,46 42,71l23,45l8,-45c5,-30 17,-53 34,-68zM948,872c4,-23 3,-23 -22,-7c-27,18 -26,38 2,33c10,-2 18,-14 20,-26zM690,795c27,-14 65,-38 83,-55c19,-16 37,-30 40,-30c3,0 20,-14 38,-31c85,-80 195,-146 279,-169c37,-10 41,-14 27,-22c-10,-5 -35,-7 -56,-3c-42,7 -146,53 -190,84c-14,10 -62,38 -106,61c-122,66 -182,106 -201,136c-17,25 -17,27 1,40c25,18 28,18 85,-11z"></path><path d="M1030,945c-13,-14 -22,-26 -19,-28c2,-1 14,-10 25,-20c21,-18 23,-17 47,5l25,24l-25,22c-13,12 -26,22 -27,22c-1,0 -13,-11 -26,-25zM1069,914c-9,-11 -15,-12 -25,-3c-11,9 -12,15 -3,25c9,11 15,12 25,3c11,-9 12,-15 3,-25z"></path><path d="M1101,803l-33,-35l33,-36c19,-20 35,-38 36,-40c1,-2 19,14 41,36l39,39l-37,37c-21,20 -39,36 -41,35c-2,0 -19,-16 -38,-36zM1165,790c18,-20 18,-21 -3,-43l-22,-21l-21,21c-21,20 -21,21 -3,41c24,26 27,26 49,2z"></path><path d="M297,654c-20,-20 8,-24 169,-24c136,0 175,3 172,13c-4,9 -48,13 -169,15c-91,1 -168,-1 -172,-4z"></path><path d="M1196,633c-6,-14 -5,-15 5,-6c7,7 10,15 7,18c-3,3 -9,-2 -12,-12z"></path><path d="M420,550c0,-6 60,-10 160,-10c100,0 160,4 160,10c0,6 -60,10 -160,10c-100,0 -160,-4 -160,-10z"></path><path d="M606,461c-10,-16 24,-21 149,-21c123,0 155,4 155,21c0,12 -297,12 -304,0z"></path></g></g></g></svg>