<svg version="1.1" xmlns="http://www.w3.org/2000/svg" xmlns:xlink="http://www.w3.org/1999/xlink" width="500px" height="500px" viewBox="0,0,256,184.42969"><g fill="#ff7315" fill-rule="nonzero" stroke="none" stroke-width="1" stroke-linecap="butt" stroke-linejoin="miter" stroke-miterlimit="10" stroke-dasharray="" stroke-dashoffset="0" font-family="none" font-weight="none" font-size="none" text-anchor="none" style="mix-blend-mode: normal"><g transform="translate(6.70968,7.20399) scale(1.37634,1.37634)"><g transform="translate(0,134) scale(0.1,-0.1)"><path d="M794,1218c-30,-14 -46,-135 -51,-380c-4,-191 -3,-197 17,-208c21,-11 363,-11 374,1c11,10 8,407 -3,428c-6,11 -11,47 -11,80c0,57 -2,61 -29,75c-33,17 -42,12 -61,-38c-11,-31 -22,-29 -27,6c-5,33 -23,48 -58,48c-36,0 -65,-26 -65,-58c0,-34 -15,-26 -33,18c-16,42 -20,44 -53,28zM964,1214c29,-11 17,-22 -24,-22c-39,-1 -53,11 -27,21c18,8 33,8 51,1zM838,1178c9,-25 9,-34 -1,-40c-22,-14 -34,-8 -47,23c-11,26 -11,32 1,40c24,15 34,10 47,-23zM1089,1201c18,-12 1,-65 -22,-69c-23,-5 -30,18 -18,51c11,29 18,32 40,18zM978,1163c2,-9 -9,-13 -37,-13c-39,0 -50,8 -34,24c11,11 66,2 71,-11zM1033,1126c18,-7 46,-28 62,-45l30,-32l3,-205l3,-204l-188,2l-188,3l-3,160c-2,88 0,179 3,202c7,49 45,100 90,119c40,17 147,18 188,0zM787,1108c-3,-8 -6,-5 -6,6c-1,11 2,17 5,13c3,-3 4,-12 1,-19zM1110,1114c0,-8 -4,-12 -10,-9c-5,3 -10,10 -10,16c0,5 5,9 10,9c6,0 10,-7 10,-16z"></path><path d="M880,1065c0,-24 2,-25 65,-25c63,0 65,1 65,25c0,24 -2,25 -65,25c-63,0 -65,-1 -65,-25zM990,1070c0,-5 -23,-10 -51,-10c-31,0 -48,4 -44,10c3,6 26,10 51,10c24,0 44,-4 44,-10z"></path><path d="M787,893c-4,-3 -7,-55 -7,-114c0,-88 3,-108 16,-113c31,-12 289,-7 302,6c13,13 17,183 6,212c-5,14 -29,16 -158,16c-84,0 -156,-3 -159,-7zM1088,858l3,-28h-150h-151v23c0,13 3,27 7,31c4,3 70,5 147,4l141,-3zM1058,808c9,-9 12,-9 12,0c0,7 5,12 10,12c6,0 10,-30 10,-70v-70h-150h-150v63c0,35 3,67 7,70c12,13 248,8 261,-5z"></path><path d="M455,1000c3,-5 8,-10 11,-10c2,0 4,5 4,10c0,6 -5,10 -11,10c-5,0 -7,-4 -4,-10z"></path><path d="M455,970c-3,-5 -1,-10 4,-10c6,0 11,5 11,10c0,6 -2,10 -4,10c-3,0 -8,-4 -11,-10z"></path><path d="M578,938c-2,-12 -17,-32 -34,-43l-32,-21l29,-11c21,-8 31,-20 35,-42c4,-17 10,-31 14,-31c4,0 10,14 14,31c4,22 14,34 35,42l29,11l-32,21c-17,11 -32,31 -34,43c-4,28 -20,28 -24,0zM614,892c15,-18 15,-20 -4,-37c-20,-18 -21,-18 -39,2c-18,19 -18,22 -3,37c21,20 25,20 46,-2z"></path><path d="M1408,858c-2,-12 -18,-33 -37,-45c-20,-14 -27,-23 -18,-23c21,0 57,-39 57,-62c0,-29 17,-21 24,12c4,22 15,35 37,44l31,13l-32,13c-22,9 -33,22 -37,41c-7,34 -20,38 -25,7zM1444,807c8,-13 7,-21 -6,-34c-16,-16 -19,-16 -38,2c-19,17 -19,19 -3,37c19,21 32,20 47,-5z"></path><path d="M381,745c-31,-60 -60,-93 -107,-121c-18,-11 -18,-12 0,-40c26,-40 60,-68 136,-111c36,-20 97,-57 135,-82c116,-73 203,-111 258,-111c55,0 82,11 97,41c16,29 -6,59 -81,110c-74,50 -136,140 -159,232c-13,55 -18,62 -42,65c-17,2 -34,-4 -46,-16c-31,-31 -56,-35 -85,-12c-19,15 -27,31 -29,63c-2,33 -7,43 -23,45c-16,2 -27,-12 -54,-63zM440,756c0,-19 9,-45 21,-60c18,-23 28,-26 79,-26c35,0 62,-5 66,-12c4,-6 2,-14 -4,-16c-7,-2 -12,-8 -12,-14c0,-5 9,-7 19,-3c13,4 24,-1 35,-17c10,-13 12,-24 6,-26c-18,-6 -11,-22 10,-22c22,0 50,-42 31,-48c-20,-7 -12,-22 12,-19c17,1 22,-3 22,-22c0,-17 6,-25 21,-26c38,-3 156,-96 141,-112c-14,-13 -140,31 -200,70c-34,22 -95,70 -135,108c-40,37 -102,84 -137,104c-36,20 -65,38 -65,40c0,2 13,23 29,47c16,24 32,53 35,66c11,33 26,27 26,-12zM634,694c11,-29 6,-34 -19,-18c-14,9 -25,20 -25,25c0,16 38,10 44,-7zM415,593c22,-14 72,-54 110,-88c133,-117 212,-166 288,-180c50,-10 47,-25 -5,-25c-54,1 -131,32 -233,96c-44,28 -107,66 -140,84c-79,43 -132,86 -141,112c-14,46 51,47 121,1z"></path><path d="M1238,739c-1,-13 -13,-29 -26,-35l-23,-11l26,-17c14,-9 25,-24 25,-34c1,-15 2,-14 12,3c6,11 20,28 32,37c12,10 15,18 8,18c-7,0 -21,14 -31,31c-19,31 -19,31 -23,8zM1260,696c0,-8 -4,-17 -9,-21c-12,-7 -24,12 -16,25c9,15 25,12 25,-4z"></path><path d="M860,581c0,-5 5,-13 10,-16c6,-3 10,-2 10,4c0,5 -4,13 -10,16c-5,3 -10,2 -10,-4z"></path><path d="M1099,572c-13,-11 -37,-22 -53,-26c-61,-15 -106,-90 -106,-178c0,-32 4,-38 33,-46c17,-6 51,-13 75,-16c27,-4 66,-23 109,-52c74,-51 90,-51 155,-8c46,29 57,30 103,3c37,-22 65,-20 65,5c0,16 -58,64 -106,89c-27,14 -33,24 -39,64c-4,26 -13,60 -21,76c-16,31 -69,67 -97,67c-11,0 -30,9 -44,20c-32,25 -44,25 -74,2zM1147,564c-3,-3 -12,-4 -19,-1c-8,3 -5,6 6,6c11,1 17,-2 13,-5zM1110,538c0,-2 -7,-25 -15,-52c-8,-27 -15,-75 -15,-108c0,-57 0,-58 -29,-58c-15,0 -42,5 -60,11c-29,10 -31,14 -31,58c0,59 27,111 71,133c28,15 79,25 79,16zM1249,520c42,-21 71,-69 71,-118c0,-29 -1,-30 -37,-25c-25,3 -59,-3 -98,-16c-94,-34 -91,-35 -86,39c2,36 10,82 18,103c14,34 18,37 54,37c22,0 57,-9 78,-20zM1343,344c63,-32 62,-34 -18,-75c-41,-22 -84,-39 -94,-39c-19,0 -121,69 -121,82c0,14 107,47 153,47c26,1 62,-6 80,-15zM1451,270c5,0 9,-4 9,-10c0,-16 -26,-12 -41,7c-12,15 -12,16 4,10c10,-4 23,-7 28,-7z"></path></g></g></g></svg>