<svg version="1.1" xmlns="http://www.w3.org/2000/svg" xmlns:xlink="http://www.w3.org/1999/xlink" width="500px" height="500px" viewBox="0,0,256,176.42969"><g fill="#ff7315" fill-rule="nonzero" stroke="none" stroke-width="1" stroke-linecap="butt" stroke-linejoin="miter" stroke-miterlimit="10" stroke-dasharray="" stroke-dashoffset="0" font-family="none" font-weight="none" font-size="none" text-anchor="none" style="mix-blend-mode: normal"><g transform="translate(2.47751,12.54981) scale(1.72973,1.72973)"><g transform="translate(0,102) scale(0.1,-0.1)"><path d="M580,735c0,-102 3,-185 6,-185c4,0 31,21 60,46l54,46l52,-46c29,-25 56,-46 60,-46c5,0 8,83 8,185v185h-120h-120zM798,748c1,-87 -1,-158 -5,-158c-4,0 -26,18 -49,41l-41,40l-47,-40c-26,-23 -51,-41 -57,-41c-15,0 -12,307 4,314c6,2 53,4 102,3l90,-2z"></path><path d="M687,810c-3,-13 -14,-20 -28,-20c-21,0 -21,-1 -6,-18c10,-11 14,-27 10,-42c-5,-24 -5,-24 12,-8c16,15 20,15 40,2c21,-14 22,-13 17,11c-3,18 1,30 14,40c18,14 17,14 -8,15c-18,0 -28,5 -28,14c0,24 -17,28 -23,6z"></path><path d="M892,867c-7,-15 -21,-31 -33,-35c-20,-8 -20,-8 5,-20c16,-7 26,-20 26,-32c0,-28 17,-25 24,4c3,14 16,28 27,31c21,7 21,7 -2,19c-13,6 -26,22 -30,36l-6,25zM915,829c10,-15 -1,-23 -20,-15c-9,3 -13,10 -10,16c8,13 22,13 30,-1z"></path><path d="M450,800c0,-5 5,-10 11,-10c5,0 7,5 4,10c-3,6 -8,10 -11,10c-2,0 -4,-4 -4,-10z"></path><path d="M495,800c-3,-5 -1,-10 4,-10c6,0 11,5 11,10c0,6 -2,10 -4,10c-3,0 -8,-4 -11,-10z"></path><path d="M269,709c-20,-36 -44,-66 -61,-75c-15,-8 -28,-19 -28,-26c0,-35 256,-217 363,-257c36,-14 103,-14 128,-1c38,21 24,56 -41,101c-33,23 -60,46 -60,51c0,4 -13,26 -29,48c-16,22 -34,63 -41,90c-16,67 -33,79 -70,52c-53,-39 -83,-27 -95,41c-4,21 -13,37 -21,37c-7,0 -27,-27 -45,-61zM320,726c0,-43 31,-70 79,-68c53,2 66,-5 49,-26c-11,-13 -11,-15 4,-9c20,7 42,-17 34,-38c-3,-8 0,-15 7,-15c23,0 38,-22 26,-37c-9,-10 -7,-13 10,-13c16,0 21,-6 21,-25c0,-16 6,-25 16,-25c19,0 101,-57 108,-76c19,-50 -168,32 -239,105c-11,11 -36,36 -55,56c-19,20 -56,48 -82,61c-27,13 -48,27 -48,30c0,3 11,22 25,42c14,20 25,42 25,49c0,7 5,13 10,13c6,0 10,-11 10,-24zM478,667c3,-16 1,-17 -17,-5c-25,16 -27,31 -4,26c10,-2 19,-11 21,-21zM297,600c28,-16 69,-50 89,-74c57,-68 195,-155 247,-156c9,0 17,-4 17,-10c0,-17 -59,-11 -113,12c-29,12 -90,46 -137,75c-173,108 -229,160 -187,176c22,10 32,7 84,-23z"></path><path d="M455,760c-3,-5 -1,-10 4,-10c6,0 11,5 11,10c0,6 -2,10 -4,10c-3,0 -8,-4 -11,-10z"></path><path d="M490,760c0,-5 5,-10 11,-10c5,0 7,5 4,10c-3,6 -8,10 -11,10c-2,0 -4,-4 -4,-10z"></path><path d="M1074,728c-8,-38 -12,-43 -40,-46c-19,-2 -36,3 -44,12c-7,9 -23,16 -36,16c-20,0 -26,-9 -40,-57c-22,-77 -72,-149 -136,-199c-61,-46 -70,-79 -27,-103c46,-25 105,-7 244,75c135,81 151,91 202,141c38,35 42,59 13,68c-21,7 -90,100 -90,122c0,7 -8,13 -18,13c-13,0 -21,-12 -28,-42zM1110,746c0,-7 11,-30 25,-50c14,-20 25,-41 25,-45c0,-4 -19,-17 -42,-27c-24,-10 -78,-54 -120,-96c-76,-75 -160,-127 -231,-143c-23,-5 -28,-3 -25,11c4,21 95,87 108,79c5,-3 10,7 12,22c2,17 8,27 16,25c8,-1 12,3 9,10c-6,19 11,48 29,48c8,0 13,4 10,9c-10,16 5,41 24,41c11,0 17,7 16,18c-1,14 6,16 41,14c51,-4 83,22 83,68c0,17 5,30 10,30c6,0 10,-6 10,-14zM970,691c0,-11 -29,-35 -35,-29c-10,9 7,38 21,38c8,0 14,-4 14,-9zM1205,606c0,-12 -18,-34 -45,-53c-25,-18 -49,-37 -55,-41c-32,-25 -201,-125 -234,-138c-21,-8 -56,-14 -77,-12l-39,3l55,19c70,24 131,65 200,134c30,30 75,68 100,84c51,33 95,34 95,4z"></path><path d="M1240,538c0,-10 -8,-26 -17,-35c-17,-17 -17,-19 2,-38l20,-20l22,23c12,12 18,22 12,22c-5,0 -16,15 -24,33c-8,18 -14,25 -15,15zM1251,487c-1,-12 -15,-9 -19,4c-3,6 1,10 8,8c6,-3 11,-8 11,-12z"></path><path d="M170,511c0,-6 4,-13 10,-16c6,-3 7,1 4,9c-7,18 -14,21 -14,7z"></path><path d="M216,505c-3,-8 -1,-15 4,-15c6,0 10,7 10,15c0,8 -2,15 -4,15c-2,0 -6,-7 -10,-15z"></path><path d="M175,460c-3,-5 -1,-10 4,-10c6,0 11,5 11,10c0,6 -2,10 -4,10c-3,0 -8,-4 -11,-10z"></path><path d="M210,460c0,-5 5,-10 11,-10c5,0 7,5 4,10c-3,6 -8,10 -11,10c-2,0 -4,-4 -4,-10z"></path><path d="M252,418c-47,-22 -63,-57 -41,-85c23,-27 88,-50 194,-69c138,-25 470,-25 605,-1c157,29 236,78 199,123c-16,19 -69,47 -76,40c-8,-8 7,-26 21,-26c7,0 21,-9 32,-21c19,-21 18,-21 -4,-39c-102,-83 -612,-106 -854,-39c-120,33 -139,68 -58,102c28,11 50,25 50,29c0,13 -22,8 -68,-14z"></path></g></g></g></svg>